# xmcd
#
# Track frame offsets:
# 150
# 29150
# 49330
# 68667
# 86170
# 99057
# 121890
# 145467
# 174070
# 198372
# 214227
# 235815
#
# Disc length: 3332 seconds
#
#
# Revision: 0
# Processed by: cddbd v1.5.1PL0 Copyright (c) Steve Scherf et al.
# Submitted via: FreeRIP 2.90 
#
DISCID=a60d020c
DTITLE=Various Artist - Definitive Blues Collection Volume 2
DYEAR=1997
DGENRE=Blues
TTITLE0=Dengue Woman Blues
TTITLE1=Gang War Blues
TTITLE2=Piece Of My Heart
TTITLE3=White Boots
TTITLE4=Bad Luck Situation
TTITLE5=Dangerous Mood
TTITLE6=You've Lost That Loving Feeling
TTITLE7=Come to My Kitchen
TTITLE8=Texas Flood
TTITLE9=She Caught The Katy And Let Me A Mule To Ride
TTITLE10=Streamlined Woman
TTITLE11=Riot In Cell Block Number 9
EXTD=
EXTT0=
EXTT1=
EXTT2=
EXTT3=
EXTT4=
EXTT5=
EXTT6=
EXTT7=
EXTT8=
EXTT9=
EXTT10=
EXTT11=
PLAYORDER=
